P3
3 3
212
6
7
8
9
10
11
12
13
14
190
100
3
0
1
2
3
4
5
135
55
200
212
19
0
58
20
90
