P3
3 3
212
200
200
200
212
212
212
90
90
90
190
190
190
2
2
2
5
5
5
8
8
8
11
11
11
14
14
14
