P3
#FakeImage2 it has random values for it's pixels that I picked :) And specifically all the pixels have different numbers for their componenets, aka their RGB values.
3 3
212
135
55
200
212
19
0
58
20
90
190
100
3
0
1
2
3
4
5
6
7
8
9
10
11
12
13
14