P3
3 3
212
58
20
90
212
19
0
135
55
200
3
4
5
0
1
2
190
100
3
12
13
14
9
10
11
6
7
8
